<?xml version="1.0" encoding="UTF-8"?>
<svg width="700pt" height="700pt" version="1.1" viewBox="0 0 700 700" xmlns="http://www.w3.org/2000/svg" xmlns:xlink="http://www.w3.org/1999/xlink">
 <g>
  <path d="m606.18 155.3c0.30078-0.81641 0.078125-1.7344-0.57812-2.3125-0.29688-0.26172-0.65625-0.39844-1.0234-0.46875l0.003906-0.027343-0.10156-0.015626h-0.011718l-246.07-44.273v-71.598l17.59 17.59 11.879-11.879-37.867-37.863-37.867 37.867 11.879 11.879 17.59-17.594v71.598l-246.18 44.289 0.003906 0.027343c-0.37109 0.066407-0.73438 0.20703-1.0234 0.46484-0.64844 0.57812-0.87891 1.4961-0.57813 2.3125l81.027 216.09-49.039 26.387 7.1523-23.824-16.09-4.8281-15.398 51.289 51.285 15.398 4.832-16.09-23.816-7.1523 49.957-26.879 164.76 169.23c0.20312 0.21094 0.44922 0.37109 0.70703 0.47656 0.003906 0 0.003906 0.003906 0.003906 0.003906 0.25781 0.10547 0.52734 0.15234 0.78906 0.15234 0.26172 0 0.53906-0.050781 0.78906-0.15234 0.003906 0 0.003906-0.003906 0.003906-0.003906 0.26172-0.10547 0.50391-0.26172 0.70703-0.47656l164.76-169.23 49.957 26.879-23.816 7.1523 4.832 16.09 51.285-15.398-15.398-51.289-16.09 4.832 7.1523 23.824-49.039-26.387zm-78.297 196.84-10.074 9.8945 8.5586-24.207 10.539-9.7539zm-27.496 5.918-5.7227-3.0781 5.418-18.086 16.082-13.789-9.625 29.254zm4.3438-0.20703-0.71094 2.1602-1.0234-0.54688zm-3.0234 20.004-0.90234 0.88672 0.37891-1.1641zm-95.531-51.41 24.586 13.227-2.9922 17.93-33.477 25.895 5.0195-52.5zm-6.5156 0.96875 0.41016-4.2617 3.3203 1.7852zm125.28-83.152-20.871 13.855 15.148-57.012 22.113-11.492zm2.3906 1.7812 18.168-12.059-14.375 43.68-17.289 13.371zm-3.6484 2.418-13.648 45.516-19.504 15.086 12.453-46.867zm-36.793 63.418-24.227 18.742 10.824-48.844 25.984-17.246zm-41.52 35.656 9.5352 5.1367-5.2695 23.789-25.859 22.172 6.5859-39.48zm-14.328 7.5508 2.3359-14 9.2969 5zm26.43-1.0391 11.246 6.0547-15.539 13.324zm3.7734-17.051 0.46484-2.1055 23.992-18.559-7.8633 29.598zm-2.0469-3.6953-1.9805 1.5352-20.926-11.262 3.207-19.242 30.621-20.324zm-25.516-11.133-11.633-6.2539 14.254-9.457zm-6.5859 39.504-6.6367 39.801-30.363 26.035 3.8359-40.18zm-7.3516 44.098-5.3125 31.852-27.758 25.691 3.0391-31.801zm3.3164-2.8438 25.562-21.918-6.9609 31.406-23.871 22.102zm29.109-24.949 19.191-16.453 2.043 1.1016-7.1914 27.07-20.938 19.383zm23.766-13.992 11.277 6.0703-0.078126 0.26172-17.086 15.82zm9.0977-14.188 11.117-9.5312-4.0039 13.355zm-2.6406-1.4219-2.0156-1.0859 8.9727-33.773 19.305-14.93-11.008 36.715zm30.059-52.73 17.109-13.234-11.699 35.555-16.285 13.961zm21.059-16.289 14.539-11.246-12.164 34.402-13.926 11.938zm1.5664-4.75 14.191-43.125 15.328-10.176-14.824 41.934zm15.605-47.43 16.844-51.18 16.031-8.332-17.41 49.246zm-3.7656 2.4961-18.328 12.164 16.199-54.027 19.188-9.9688zm-29.809-32.203-89.32-23.816 49.352-17.445 84.387 18.176zm-16.555 62.977-26.195 17.387 13.379-60.375 28.125-14.617zm-29.559 19.621-30.867 20.484 10.652-63.887 33.711-17.523zm-34.059 22.609-17.672 11.73-17.461-9.3984 4.3125-45.125 41.562-21.598zm-37.816 0.89453-26.812-14.43c0.089843-0.81641 0.24609-1.6172 0.24609-2.4648 0-3.0078-0.64453-5.8477-1.7148-8.4609l32.305-16.789zm-1.7344 18.145-0.73437 7.6953-44.547 29.566v-49.945c4.6367-0.45312 8.8555-2.2695 12.254-5.0977zm-1.0781 11.285-5.0508 52.859-39.156 30.289v-53.805zm-5.4141 56.672-3.8633 40.461-34.926 29.941v-40.398zm-4.25 44.473-3.0625 32.031-31.484 29.141v-31.566zm-0.37109 33.367 27.406-25.367-4.4258 26.531-25.484 25.031zm30.77-28.484 23.566-21.812-5.8516 26.41-22.098 21.707zm27.168-25.148 20.66-19.125-6.9336 26.098-19.516 19.176zm24.496-22.676 16.852-15.598-7.6992 25.676-16.004 15.719zm20.895-19.34 0.35938-0.33203 8.7305 4.6992-2.2344 6.7891-14.453 14.203zm30.672-52.27 13.742-11.781-10.047 28.422-13.195 12.207zm18.832 2.625-10.723 9.9297 9.8945-27.988 11.207-9.6055zm12.41-33.109-11.375 9.75 11.988-33.906 11.895-9.1992zm14.379-38.348-12.039 9.3125 14.617-41.344 12.562-8.3398zm16.816-44.844-12.684 8.418 17.168-48.562 13.125-6.8203zm15.07-50.379-32.363 16.816-83.25-17.93 36.91-13.047zm-84.262-15.164-36.562 12.926-65.012-14 38.512-10.266zm-155.12-27.906 29.539 5.3125-29.539 6.3633zm0 14.543 36.797-7.9258 48.758 8.7734-38.031 10.141-47.523-10.234zm0 3.6211 41.574 8.9531-41.574 11.086zm0 22.938 47.59-12.691 65.922 14.195-48.922 17.293-64.59-17.215zm0 4.4766 59.914 15.977-59.914 21.18zm0 40.125 64.707-22.871 90.312 24.078-64.77 33.66-90.25-31.898zm0 5.9414 86.844 30.699-76.332 39.672c-2.5195-3.8789-6.1641-6.957-10.512-8.7031zm-16.797-91.645v11.676l-29.539-6.3633zm-36.801 6.6211 36.793 7.9258v0.75l-47.523 10.238-38.031-10.141zm22.895 170.05-4.75 2.5547-0.92578-17.191 7.1445 3.7109c-1.0703 2.6211-1.7148 5.4531-1.7148 8.4609 0 0.84375 0.15625 1.6445 0.24609 2.4648zm-11.277 177.04-1.1406-11.961 14.309 12.777 0.64453 11.969zm14.027 16.801 0.63281 11.738-13.125-12.543-1.125-11.805zm-136.98-130.62-3.2266-9.8125 5.0234 4.4844 3.1133 9.8672zm3.5391 7.0977-1.0234 0.54688-0.71094-2.1562zm101.67 76.188-2.1094-15.895 13.719 11.762 1.5117 15.855zm13.52 15.82 1.1328 11.848-12.512-11.582-1.5742-11.832zm-95.422-83.562 2.3008 8.1641-6.2148-5.75-0.078125-0.26953zm-2.3242-18.555 0.51562 0.44141-0.33984 0.18359zm3.1562-0.98047-4.5312-3.8867-4.2109-14.918 7.7188 6.2891 3.0391 11.434zm83.078-17.371 2.4766 25.906-16.531-11.93-1.8164-13.684 9.0117-4.8477zm-0.24219-31.98 4.2109 2.5156-3.7734 2.0312zm-24.367 81.691-3.1758-19.047 14.629 11.312 2.543 19.129zm14.527 15.441 2.2188 16.703-13.281-11.391-2.7656-16.582zm-59.359-55.117-3.5-14.301 10.539 8.1523 0.46484 2.1094zm2.2422 20.949-2.1992-1.8867 1.5352-0.82812zm32.824-39.82-2.6211-15.719 14.254 9.457zm15.867 10.543 1.3281 10.008-8.5117-6.1445zm-13.211 22.375-11.637-9 9.3008-5.0078zm-5.2578-31.52-3.8594 2.0781-8.7305-6.3008-4.7695-24.41 14.152 9.3906zm-6.6055 3.5586-4.043 2.1719-1.1602-5.9258zm-6.6172 3.5625-7.707 4.1445-1.9805-1.5352-4.7305-21.363 12.523 9.0391zm-2.6836-13.734-12.645-9.1289-5.2812-23.816 13.199 8.7578zm-16.059-11.598-11.199-8.0859-5.6836-23.238 11.66 7.7383zm-14.707-10.605-10.496-7.5703-6.0195-22.652 10.887 7.2227zm-42.234-12.504-5.918-4.582-6.1367-18.652 6.1211 4.418zm-10.188-41.551 8.0547 5.3438 6.3906 21.297-7.8047-5.6328zm11.664 46.23 5.3086 16.812-5.6406-4.5938-5.5039-16.734zm-3.6172-20.754 7.7188 5.5664 5.7852 19.293-7.4766-5.7852zm11.445 8.2617 7.9062 5.707 5.5664 19.723-7.6094-5.8867zm11.559 8.3438 8.4297 6.0859 5.3633 20.195-8.1641-6.3164zm7.2969 1.8086-8.5195-6.1484-6.2344-22.086 8.7969 5.8398zm-12.172-8.7852-8.0039-5.7773-6.4688-21.57 8.3164 5.5156zm-15.73-31.539-7.3242-24.422 8.7344 5.2148 6.9961 24.785zm-3.6523-2.4219-8.1367-5.3984-7.4922-23.734 8.3945 5.0117zm-3.957 17.117-6.1992-4.4727-6.7461-20.5 6.4023 4.25zm-10.066-7.2656-6.2227-4.4922-6.8359-19.98 6.4023 4.25zm1.4961 4.5352 6.0469 18.387-5.957-4.6094-6.2344-18.207zm7.6094 23.129 5.4336 16.508-5.6914-4.6328-5.6211-16.418zm7.0586 21.441 4.4961 13.66-5.4609-4.6797-4.6367-13.539zm4.0234 3.2773 5.5508 4.5195 4.418 14-5.3984-4.625zm2.5938-14.141 7.3789 5.7109 5.1406 17.137-7.1445-5.8203zm11.184 8.6523 7.5039 5.8086 4.9102 17.414-7.2188-5.8789zm11.227 8.6797 8.0703 6.2422 4.7148 17.742-7.8164-6.3672zm5.1094-15.812 10.383 7.4922 5.0586 20.68-10.012-7.7461zm13.883 10.016 11.09 8.0039 4.6875 21.145-10.664-8.25zm18.789 53.75 2.9727 2.418 3.5 15.781-9.6953-8.3086-1.7656-7.207zm5.4922 0.875-0.75781-3.4219 8.7695-4.7148 3.4102 17.438zm12.258 13.59 3.1484 16.117-10.891-9.3398-3.5391-15.965zm2.5547-1.5273-3.6719-18.801 12.656 9.7891 3.1523 18.895zm12.828 14.055 2.7383 16.418-11.547-9.8945-3.1875-16.289zm-1.2656-24.605-2.9922-17.93 3.0195-1.625 11.766 8.4883 2.9922 22.496zm24.395-32.66 3.3203-1.7852 0.41016 4.2617zm-14.168-11.457-3.6328-27.371 18.648 11.129 0.73828 7.7656zm-2.8047 0.19141-16.582-11.008-4.8047-28.824 17.484 10.434zm-19.773-13.129-14.273-9.4766-5.4805-28.055 14.992 8.9492zm-17.551-11.648-13.316-8.8359-6.043-27.277 13.926 8.3086zm-16.684-11.07-11.766-7.8125-6.4922-26.527 12.266 7.3203zm-15.203-10.09-10.992-7.2969-6.8477-25.77 11.418 6.8164zm-14.512-9.6328-8.8828-5.8984-7.0742-25.078 9.1836 5.4766zm-17.055-34.895-7.6445-27.086 9.5547 4.9688 7.3477 27.648zm-3.5-2.082-8.8203-5.2656-7.875-26.258 9.1445 4.7539zm-12.383-7.3867-8.4727-5.0586-8.0234-25.406 8.7188 4.5312zm-3.4258 20.227-6.4727-4.2969-7.6094-23.117 6.6875 3.9883zm-10.238-6.7969-6.4805-4.2969-7.6953-22.484 6.6641 3.9766zm-10.305-6.8398-5.1641-3.4258-7.7461-21.914 5.3242 3.1758zm1.4844 4.3516 6.7383 19.684-4.9375-3.5664-6.8945-19.5zm8.3086 24.273 6.1367 17.93-4.7148-3.6445-6.293-17.797zm7.7852 22.738 5.543 16.191-4.4805-3.6523-5.6992-16.133zm7.2539 21.199 4.5469 13.289-4.2773-3.668-4.6641-13.203zm6.332 18.508 4.6758 13.668-4.0469-3.6133-4.8281-13.652zm6.5312 19.07 3.1992 9.3359-3.8711-3.5781-3.2812-9.2891zm2.4062-1.6016-4.7539-13.883 5.3633 4.5977 4.582 13.926zm4.7148-5.7656 5.3047 4.5469 4.4688 14.164-5.125-4.5742zm3.2383-11.289 7.0391 5.7344 4.3125 14.379-6.8594-5.8789zm10.906 8.8789 7.1055 5.7891 4.1484 14.707-6.875-5.8984zm12.629 25.363 1.4883 5.2812-4.2461 2.2852-4.0039-13.363zm8.4531-11.797-4.7656-17.93 9.8945 7.6562 4.4141 18.055zm3.1016 11.664-1.875-7.0547 5.9648 4.8594zm3.6484 24.645-5.2578-4.6992 3.5117-1.8867zm1.3086 4.9219 2.8281 10.641-6.9258-6.4102-2.9727-10.551zm2.4883-1.5273-3.0117-11.344 2.0508-1.1016 5.9805 5.1289 3.6914 15.094zm9.8867 12.578 2.6641 10.891-8.3672-7.7461-2.8711-10.809zm2.5078-1.5117-3.7305-15.262 9.5664 8.1992 3.3867 15.293zm10.258 12.91 2.4648 11.129-8.8477-8.1875-2.7031-11.047zm-0.88281-16.938 10.746 9.2188 3.0234 15.477-10.348-9.2383zm14.66 29.25 2.2188 11.344-9.9219-9.1836-2.4961-11.273zm-0.48828-17.098 11.395 9.7734 2.6094 15.637-10.949-9.7773zm14.742 29.82 1.9258 11.543-10.477-9.6992-2.2461-11.484zm-0.035157-17.211 13.121 11.25 2.0938 15.766-12.582-11.238zm15.781 31.277 1.5586 11.715-12.027-11.133-1.9492-11.672zm-0.023437-21.449-2.2383-16.863 14.508 11.82 1.6172 16.945zm-2.7773-20.902-2.5586-19.273 15.391 11.906 1.8477 19.324zm-3.0781-23.219-3.0117-22.676 16.375 11.82 2.1836 22.883zm13.191-42.062-0.73437-7.6953 18.602-10.012 1.6523 30.66zm4.1797-29.422-7.4141-4.4258-3.2578-34.145 22.281 11.582 1.0859 20.16zm-10.402-6.2031-18.789-11.211-4.3906-33.051 19.941 10.367zm-21.855-13.051-17.617-10.512-5.3242-31.949 18.586 9.6602zm-20.77-12.391-15.109-9.0156-6.043-30.91 15.871 8.25zm-18.34-10.945-14.039-8.3789-6.625-29.887 14.672 7.6289zm-17.344-10.348-12.363-7.375-7.0742-28.914 12.879 6.6914zm-15.742-9.3906-11.512-6.8711-7.4258-27.957 11.945 6.2031zm-20.184-40.203-44.414-23.082 84.387-18.176 49.348 17.445zm-39.914-16.008 7.918 25.078-6.7539-4.0273-8.1133-24.664zm-2.5 18.859-6.7305-4.0156-8.1758-23.891 6.9062 3.5898zm-10.449-6.2344-5.3867-3.2148-8.2031-23.199 5.5312 2.8711zm-9.1484-5.457-4.9922-2.9805-8.2109-22.535 5.1172 2.6602zm1.4609 4.1328 7.6289 21.582-4.7891-3.1758-7.7734-21.348zm9.1836 25.973 6.7891 19.195-4.582-3.3086-6.9336-19.027zm8.4219 23.836 6.1953 17.516-4.375-3.3828-6.332-17.395zm7.918 22.383 5.6211 15.898-4.1484-3.3828-5.7695-15.844zm7.4102 20.969 4.5742 12.945-3.9648-3.3984-4.6875-12.867zm6.4492 18.238 4.75 13.43-3.7422-3.3438-4.8828-13.41zm6.6875 18.918 3.207 9.0781-3.5742-3.3086-3.293-9.0312zm5.2188 14.754 3.4492 9.7656-3.3828-3.2305-3.5547-9.7539zm5.5156 15.613 3.0352 8.5859-3.1914-3.1367-3.1289-8.5859zm2.4219-1.5625-3.5234-9.9609 3.7734 3.4961 3.4102 9.9688zm2.668-8.0508-3.2656-9.543 5.0977 4.5469 3.1641 9.6133zm6.8008 10.113 2.4414 7.4258-1.2695 0.68359-2.5859-2.4688-3.4766-10.16zm7.7773 23.637 0.37891 1.1602-0.90234-0.88672zm-1.1133-32.105-4.5352-14.363 6.7539 5.7891 4.3242 14.414zm6.8945 9.9141-3.2227 1.7305-2.0273-6.4102zm-2.2031 20.266 2.7148 2.5977 2.8828 9.1406-4.4453-4.3672-2.2344-6.7812zm5.168 1.0625-1.0352-3.2891 3.5156-1.8945 0.35938 0.33594 3.1758 10.594zm7.6445 11.18 2.793 9.3203-5.75-5.6523-2.9336-9.3008zm2.4688-1.5195-3.2266-10.762 6.0859 5.6328 3.0352 10.762zm7.3945 10.938 2.6719 9.4648-5.5898-5.4922-2.8438-9.4766zm2.4844-1.4961-3.0781-10.922 6.8164 6.3125 2.9102 10.965zm8.0312 11.543 2.5586 9.6367-6.3828-6.2734-2.7109-9.6094zm2.5039-1.4805-2.957-11.117 8.2266 7.6172 2.7266 11.145zm9.2383 12.695 2.3984 9.793-7.6562-7.5156-2.5977-9.7812zm-0.23828-12.75 8.7031 8.0586 2.5039 11.305-8.4492-8.0703zm12.297 24.277 2.1992 9.9297-8.0742-7.9297-2.4297-9.9297zm0.015625-12.875 9.7656 9.043 2.2383 11.445-9.4688-9.0508zm12.938 25.25 1.9648 10.039-9.0508-8.8867-2.2305-10.051zm0.3125-12.984 10.316 9.5469 1.9258 11.559-9.9844-9.5352zm13.008 25.715 1.6914 10.137-9.5273-9.3594-1.9883-10.16zm0.66406-13.062 11.848 10.969 1.5469 11.648-11.453-10.941zm13.988 27.062 1.3555 10.199-10.922-10.73-1.707-10.242zm1.0859-13.105 12.332 11.414 1.1211 11.703-11.891-11.355zm13.859 27.379 0.98047 10.23-11.312-11.109-1.3672-10.297zm-0.375-33.359-1.5234-15.973 15.152 12.992 0.85547 15.914zm-1.9102-19.988-1.6367-17.086 16.039 13.066 0.92578 17.164zm-2.0039-20.992-1.8594-19.461 17.02 13.164 1.0547 19.504zm-2.2227-23.281-2.1992-23.051 18.133 13.086 1.2539 23.25zm-2.5586-26.766-2.4922-26.09 19.363 12.852 1.4219 26.441zm-51.438-124.28 86.852-30.695v61.668c-4.3438 1.7461-7.9961 4.8281-10.512 8.7031zm-3.4062-1.7695-64.77-33.66 90.312-24.078 64.715 22.871v2.9688zm30.344-59.012 59.914-15.98v37.152zm-4.6797-1.6523-48.914-17.293 65.918-14.195 47.59 12.691v1.5781zm23.02-32.789 41.574-8.9531v20.035zm-50.473-10.555 38.512 10.266-65.012 14-36.562-12.926zm-68.637 12.348 36.91 13.047-83.242 17.93-32.363-16.816zm-81.238 17.57 4.3281 2.25 8.0742 22.172-4.1836-2.4961zm9.793 26.125 4.1289 2.4648 7.6484 21.012-3.9648-2.6328zm9.5 25.316 3.9023 2.5859 6.8164 18.723-3.7422-2.6992zm8.7539 23.348 3.6719 2.6484 6.2266 17.102-3.5117-2.7148zm8.2539 22.016 3.4375 2.6602 5.6836 15.602-3.2773-2.6641zm7.793 20.789 3.1914 2.6055 4.5938 12.605-3.0703-2.6328zm6.7539 18.012 2.9844 2.5586 4.8008 13.184-2.832-2.5312zm7.0742 18.855 2.7422 2.4453 3.2148 8.8203-2.6484-2.4531zm5.5 14.664 2.5547 2.3633 3.4766 9.5547-2.4375-2.3281zm9.0195 24.059-3.1641-8.4336 2.3359 2.2344 3.0586 8.3945zm5.3164 14.176-2.9844-7.9531 2.1289 2.0898 2.8789 7.9023zm4.6875 1.1641-0.90234-2.4688 1.9414 1.9023zm1.5117-9.75 3.5664 3.4102 1.043 3.0469-1.9531 1.0547zm4.625 26.602-0.32422-0.89062 1.5273-0.82422 1.6406 4.6367zm5.5-4.0352 1.293 3.7734-2.8906-2.9102zm2.0039 11.738-1.7969-5.0898 3.1602 3.1875 1.7422 5.0898zm0.91797-11.832 4.4258 4.3438 2.7734 8.4219-4.3125-4.3516zm6.7461 19.707-1.7852-5.2266 4.1953 4.2266 1.7266 5.2422zm2.0352-11.082 4.3359 4.2578 2.7109 8.5859-4.2188-4.25zm6.5469 19.895-1.7656-5.3633 4.0977 4.1328 1.6953 5.375zm2.043-11.457 5.6211 5.5234 2.6211 8.7461-5.4883-5.5273zm6.332 20.059-1.7344-5.4922 5.3555 5.3984 1.6523 5.5156zm3.4297-10.465 5.4531 5.3594 2.5039 8.8711-5.2852-5.332zm6.0625 20.215-1.6875-5.6289 5.1445 5.1875 1.5859 5.6211zm3.4219-10.902 6.2617 6.1484 2.4023 9.0312-6.1133-6.1641zm5.7227 20.293-1.6172-5.7344 5.9922 6.043 1.5273 5.7578zm4.457-10.285 7.5039 7.3711 2.2383 9.1602-7.3086-7.3711zm5.4414 20.449-1.5586-5.8633 7.1562 7.2109 1.4375 5.875zm5.8555-9.3555 7.9258 7.7852 2.0547 9.2773-7.707-7.7656zm5.0234 20.535-1.4609-5.9688 7.5469 7.6094 1.3281 5.9766zm6.5703-9.1523 8.8867 8.7305 1.832 9.375-8.6367-8.7031zm4.5586 20.574-1.3438-6.0664 8.4688 8.5352 1.1875 6.0664zm7.8477-8.375 9.3594 9.1953 1.5742 9.4414-9.0781-9.1523zm4.0234 20.574-1.2031-6.1484 8.9102 8.9766 1.0234 6.1367zm8.7305-8.0469 10.734 10.551 1.2617 9.4883-10.406-10.488zm3.4258 20.527-1.0352-6.2148 10.219 10.297 0.82422 6.1875zm10.562-6.7852 11.129 10.93 0.90625 9.4961-10.758-10.848zm2.7148 20.426-0.83594-6.2617 10.574 10.656 0.59375 6.2227zm10.121-21.109 12.941 12.363 0.55469 10.246-12.504-12.285zm1.3984 14.66 12.312 12.102 0.50781 9.4922-11.91-12.008zm1.9336 20.266-0.59766-6.2812 11.723 11.809 0.33594 6.2383zm26.211 26.918-11.793-12.113-0.33984-6.293 12.129 12.227v6.1797zm0-10.145-12.355-12.453-0.51562-9.5742 12.875 12.645 0.003906 9.3828zm0-13.316-13.094-12.863-0.55469-10.332 13.652 13.043 0.003906 10.152zm0-14.023-13.871-13.254-0.63672-11.828 14.508 13.43zm0-15.469-14.723-13.629-0.64844-12.066 15.371 13.73zm0-15.723-15.586-13.922-0.86328-16.027 16.445 14.102zm0-19.527-16.656-14.281-0.92969-17.297 17.59 14.332 0.003906 17.246zm0-20.855-17.793-14.492-1.0586-19.629 18.848 14.578zm0-23.078-19.047-14.734-1.2578-23.406 20.305 14.656zm0-26.941-20.5-14.797-1.4336-26.621 21.934 14.559zm0-30.219-22.121-14.684-1.6797-31.16 23.801 14.203zm0-34.902-23.555-14.055 11.301-6.082c3.3984 2.8281 7.6094 4.6406 12.246 5.0977l0.003906 15.039zm2.1016-25.051c-6.5625 0-11.879-5.3203-11.879-11.879 0-6.5625 5.3203-11.879 11.879-11.879s11.879 5.3203 11.879 11.879c0 6.5586-5.3164 11.879-11.879 11.879zm28.312 222.33-26.215 26.918v-19.531l28.145-27.652zm-26.211 3.457v-25.676l31.078-28.773-2.5195 26.395zm52.941-30.906-23.609 24.246 1.9219-20.109 25.117-24.672zm3.4336-3.5312 3.3945-20.352 21.766-21.387-4.5586 20.574zm24.312-24.969 4.5117-20.367 19.219-18.879-5.4336 20.453zm22.273-22.875 5.3711-20.211 15.746-15.469-6.0664 20.223zm19.281-19.801 5.9883-19.953 14.219-13.965-6.5469 19.902zm29.891-30.707-11.793 12.113 6.4531-19.605 5.3945-5.2969 3.7578 2.0234zm4.6602-4.7773 1.6406-4.6406 1.8945 1.0195zm4.8164-22.02-7.1914-3.8711 2.4453-7.4297 12.992-12.027zm3.125 1.6797 8.7148-8.5625-4.1367 11.027z"/>
 </g>
</svg>
