<?xml version="1.0" encoding="UTF-8"?>
<svg width="700pt" height="700pt" version="1.1" viewBox="0 0 700 700" xmlns="http://www.w3.org/2000/svg" xmlns:xlink="http://www.w3.org/1999/xlink">
 <g>
  <path d="m423.95 403.73h-320.04c-4.8281 0-8.7461-3.918-8.7461-8.7461s3.918-8.7461 8.7461-8.7461h320.04c4.8281 0 8.7461 3.918 8.7461 8.7461s-3.918 8.7461-8.7461 8.7461z"/>
  <path d="m329.12 430.36h-9.125c-4.8281 0-8.7461-3.918-8.7461-8.7461s3.918-8.7461 8.7461-8.7461h9.125c4.8281 0 8.7461 3.918 8.7461 8.7461s-3.918 8.7461-8.7461 8.7461z"/>
  <path d="m361.35 430.36h-9.125c-4.8281 0-8.7461-3.918-8.7461-8.7461s3.918-8.7461 8.7461-8.7461h9.125c4.8281 0 8.7461 3.918 8.7461 8.7461s-3.918 8.7461-8.7461 8.7461z"/>
  <path d="m393.58 430.36h-9.125c-4.8281 0-8.7461-3.918-8.7461-8.7461s3.918-8.7461 8.7461-8.7461h9.125c4.8281 0 8.7461 3.918 8.7461 8.7461 0.003906 4.8281-3.9141 8.7461-8.7461 8.7461z"/>
  <path d="m226.94 497.18c-0.65234 0-1.332-0.074219-1.9961-0.23047-4.7148-1.0977-7.6328-5.7969-6.5352-10.512l10.484-45.07c1.0977-4.7148 5.7969-7.6328 10.512-6.5352s7.6328 5.7969 6.5352 10.512l-10.484 45.07c-0.9375 4.0312-4.5391 6.7656-8.5156 6.7656z"/>
  <path d="m300.9 497.18c-4.1211 0-7.793-2.9219-8.5898-7.1133l-8.5586-45.07c-0.89453-4.7422 2.2109-9.3242 6.9688-10.238 4.7422-0.89453 9.3242 2.2109 10.238 6.9688l8.5586 45.07c0.89453 4.7422-2.2109 9.3242-6.9688 10.238-0.55078 0.085938-1.1016 0.14453-1.6484 0.14453z"/>
  <path d="m327.05 497.18h-126.26c-4.8281 0-8.7461-3.918-8.7461-8.7461 0-4.8281 3.918-8.7461 8.7461-8.7461h126.26c4.8281 0 8.7461 3.918 8.7461 8.7461 0 4.8281-3.918 8.7461-8.7461 8.7461z"/>
  <path d="m406.84 452.11h-285.84c-14.258 0-25.852-11.598-25.852-25.852v-170.18c0-14.258 11.598-25.852 25.852-25.852h285.84c14.258 0 25.852 11.598 25.852 25.852v170.18c0.003906 14.258-11.594 25.852-25.848 25.852zm-285.84-204.36c-4.5977 0-8.3438 3.7461-8.3438 8.3438v170.18c0 4.5977 3.7461 8.3438 8.3438 8.3438h285.84c4.5977 0 8.3438-3.7461 8.3438-8.3438v-170.18c0-4.5977-3.7461-8.3438-8.3438-8.3438z"/>
  <path d="m326.94 363.56c-2.168 0-4.3359-0.79688-6.043-2.4141-3.5-3.3398-3.6289-8.8789-0.28906-12.379l25.391-26.621-25.391-26.621c-3.3398-3.5-3.2109-9.0352 0.28906-12.379 3.5-3.3398 9.0352-3.2109 12.379 0.28906l31.16 32.664c3.2227 3.3828 3.2227 8.7031 0 12.074l-31.16 32.664c-1.7227 1.8125-4.0352 2.7227-6.3359 2.7227z"/>
  <path d="m200.91 363.56c-2.3125 0-4.6133-0.91016-6.332-2.7031l-31.16-32.664c-3.2227-3.3828-3.2227-8.7031 0-12.074l31.16-32.664c3.3398-3.5 8.8789-3.6289 12.379-0.28906 3.5 3.3398 3.6289 8.8789 0.28906 12.379l-25.391 26.605 25.391 26.621c3.3398 3.5 3.2109 9.0352-0.28906 12.379-1.7109 1.6016-3.8789 2.4102-6.0469 2.4102z"/>
  <path d="m250.18 370.64c-0.95312 0-1.9102-0.16016-2.8633-0.47656-4.5703-1.5742-6.9844-6.5625-5.4062-11.133l27.5-79.496c1.5742-4.5703 6.5625-6.9844 11.133-5.4062 4.5703 1.5742 6.9844 6.5625 5.4062 11.133l-27.5 79.496c-1.2578 3.6133-4.6562 5.8828-8.2695 5.8828z"/>
  <path d="m574.97 359.91h-151.02c-4.8281 0-8.7461-3.918-8.7461-8.7461s3.918-8.7461 8.7461-8.7461h151.02c6.8242 0 12.379-5.5508 12.379-12.379v-237.35c0-6.8242-5.5508-12.379-12.379-12.379l-302.07 0.003906c-6.8242 0-12.379 5.5508-12.379 12.379v146.3c0 4.8281-3.918 8.7461-8.7461 8.7461s-8.7461-3.918-8.7461-8.7461v-146.3c0-16.469 13.402-29.871 29.871-29.871h302.07c16.469 0 29.871 13.402 29.871 29.871v237.35c0 16.469-13.402 29.871-29.871 29.871z"/>
  <path d="m596.09 169.79h-344.3c-4.8281 0-8.7461-3.918-8.7461-8.7461s3.918-8.7461 8.7461-8.7461h344.3c4.8281 0 8.7461 3.918 8.7461 8.7461s-3.918 8.7461-8.7461 8.7461z"/>
  <path d="m302.94 146.66c-15.184 0-27.531-12.348-27.531-27.531s12.348-27.547 27.531-27.547 27.531 12.348 27.531 27.531c-0.003906 15.184-12.352 27.547-27.531 27.547zm0-37.566c-5.5391 0-10.035 4.4961-10.035 10.035 0 5.5391 4.4961 10.035 10.035 10.035s10.035-4.4961 10.035-10.035c-0.003906-5.5391-4.5-10.035-10.035-10.035z"/>
  <path d="m367.46 146.66c-15.184 0-27.531-12.348-27.531-27.531s12.348-27.531 27.531-27.531 27.531 12.348 27.531 27.531c0 15.18-12.348 27.531-27.531 27.531zm0-37.566c-5.5391 0-10.035 4.4961-10.035 10.035 0 5.5391 4.4961 10.035 10.035 10.035 5.5391 0 10.035-4.4961 10.035-10.035 0-5.5391-4.4961-10.035-10.035-10.035z"/>
  <path d="m569.79 127.88h-146.43c-4.8281 0-8.7461-3.918-8.7461-8.7461s3.918-8.7461 8.7461-8.7461h146.41c4.8281 0 8.7461 3.918 8.7461 8.7461s-3.9062 8.7461-8.7344 8.7461z"/>
  <path d="m549.1 329.94c-2.168 0-4.3359-0.79688-6.043-2.4141-3.5-3.3398-3.6289-8.8789-0.28906-12.379l7.7227-8.0977-7.7227-8.0977c-3.3398-3.5-3.2109-9.0352 0.28906-12.379 3.5-3.3398 9.0352-3.2109 12.379 0.28906l13.477 14.141c3.2227 3.3828 3.2227 8.7031 0 12.074l-13.477 14.141c-1.7227 1.8125-4.0234 2.7227-6.3359 2.7227z"/>
  <path d="m494.56 329.94c-2.3125 0-4.6133-0.91016-6.332-2.7031l-13.477-14.141c-3.2227-3.3828-3.2227-8.7031 0-12.074l13.477-14.141c3.3398-3.5 8.8789-3.6289 12.379-0.28906s3.6289 8.8789 0.28906 12.379l-7.7227 8.0977 7.7227 8.0977c3.3398 3.5 3.2109 9.0352-0.28906 12.379-1.6953 1.5859-3.8789 2.3945-6.0469 2.3945z"/>
  <path d="m515.89 333.01c-0.95312 0-1.9102-0.16016-2.8633-0.47656-4.5703-1.5742-6.9844-6.5625-5.4062-11.133l11.898-34.398c1.5742-4.5703 6.5625-6.9844 11.133-5.4062 4.5703 1.5742 6.9844 6.5625 5.4062 11.133l-11.898 34.398c-1.2578 3.6133-4.6562 5.8828-8.2695 5.8828z"/>
  <path d="m558.53 210.64h-273.23c-4.8281 0-8.7461-3.918-8.7461-8.7461s3.918-8.7461 8.7461-8.7461h273.25c4.8281 0 8.7461 3.918 8.7461 8.7461-0.011718 4.8281-3.918 8.7461-8.7617 8.7461z"/>
  <path d="m558.53 266.39h-134.6c-4.8281 0-8.7461-3.918-8.7461-8.7461 0-4.8281 3.918-8.7461 8.7461-8.7461h134.6c4.8281 0 8.7461 3.918 8.7461 8.7461 0.003906 4.8281-3.9023 8.7461-8.7461 8.7461z"/>
 </g>
</svg>
