<?xml version="1.0" encoding="UTF-8"?>
<svg width="700pt" height="700pt" version="1.1" viewBox="0 0 700 700" xmlns="http://www.w3.org/2000/svg" xmlns:xlink="http://www.w3.org/1999/xlink">
 <g>
  <path d="m610.88 113.75h-8.0938c-1.7188-5.6641-3.9883-11.145-6.7812-16.363l5.7305-5.7305c3.5742-3.832 5.4844-8.9297 5.3125-14.168s-2.4141-10.199-6.2305-13.789l-8.2695-8.2695c-3.5977-3.8086-8.5547-6.043-13.789-6.2148-5.2383-0.17188-10.328 1.7344-14.168 5.2969l-5.7305 5.7305c-5.2188-2.793-10.699-5.0625-16.363-6.7812v-8.0938c-0.18359-5.2383-2.4375-10.195-6.2656-13.781-3.8281-3.582-8.9219-5.5-14.164-5.3359h-11.641c-5.2422-0.16406-10.336 1.7539-14.164 5.3359-3.8281 3.5859-6.082 8.543-6.2656 13.781v8.0938c-5.6641 1.7148-11.148 3.9844-16.363 6.7812l-5.5117-5.7305c-3.8398-3.5625-8.9297-5.4688-14.168-5.2969-5.2344 0.17188-10.191 2.4062-13.789 6.2148l-8.2266 8.2266h0.003906c-3.9258 3.5703-6.2617 8.5625-6.4805 13.863-0.22266 5.3008 1.6836 10.469 5.2969 14.355l5.7305 5.7305c-2.7812 5.1484-5.0508 10.555-6.7812 16.145h-8.0938c-5.2383 0.18359-10.195 2.4375-13.781 6.2656-3.582 3.8281-5.5 8.9219-5.3359 14.164v11.641c-0.16406 5.2422 1.7539 10.336 5.3359 14.164 3.5859 3.8281 8.543 6.082 13.781 6.2656h8.0938c1.7188 5.6641 3.9883 11.145 6.7812 16.363l-5.7734 5.7734c-3.5664 3.8398-5.4688 8.9336-5.2969 14.168 0.17188 5.2344 2.4062 10.191 6.2148 13.789l8.2695 8.2695c3.6016 3.7969 8.5586 6.0234 13.789 6.1953 5.2344 0.17188 10.324-1.7227 14.168-5.2773l5.7305-5.7305c5.2344 2.7812 10.727 5.0391 16.406 6.7383v8.0938c0.18359 5.2383 2.4375 10.195 6.2656 13.781 3.8281 3.582 8.9219 5.5 14.164 5.3359h11.641c5.2422 0.16406 10.336-1.7539 14.164-5.3359 3.8281-3.5859 6.082-8.543 6.2656-13.781v-8.0938c5.6641-1.7148 11.145-3.9883 16.363-6.7812l5.7734 5.7734c3.8516 3.5469 8.9453 5.4375 14.176 5.2578 5.2344-0.17969 10.184-2.4141 13.781-6.2188l8.2266-8.2695c3.8086-3.5977 6.043-8.5547 6.2148-13.789 0.17188-5.2383-1.7344-10.328-5.2969-14.168l-5.7305-5.7305c2.793-5.2188 5.0625-10.699 6.7812-16.363h8.0938c5.2383-0.18359 10.195-2.4375 13.781-6.2656 3.582-3.8281 5.5-8.9219 5.3359-14.164v-11.641c0.16406-5.2422-1.7539-10.336-5.3359-14.164-3.5859-3.8281-8.543-6.082-13.781-6.2656zm1.6172 32.07c0 1.8359-1.0508 2.9297-1.6172 2.9297h-21.875l-1.4883 6.8672c-1.9023 8.4531-5.2969 16.496-10.02 23.758l-3.8047 5.9062 15.488 15.488c0.39453 0.39453 0.35156 1.9688-0.91797 3.2383l-8.2266 8.2266c-1.3125 1.2695-2.8438 1.3125-3.2383 0.91797l-15.488-15.531-5.6875 3.6289c-7.2422 4.6523-15.258 7.9688-23.668 9.8008l-6.8672 1.4883v21.875c0 0.57031-1.0938 1.6172-2.9297 1.6172h-11.637c-1.8359 0-2.9297-1.0508-2.9297-1.6172v-21.875l-6.8672-1.4883h-0.007812c-8.4727-1.8125-16.547-5.1328-23.844-9.8008l-5.9492-3.8047-15.445 15.488c-0.39453 0.39453-1.8828 0.4375-3.2383-0.91797l-8.1797-8.0547c-1.2695-1.2695-1.3125-2.8438-0.91797-3.2383l15.488-15.488-3.6328-5.8594c-4.6484-7.2461-7.9648-15.258-9.8008-23.668l-1.6602-6.957h-21.875c-0.57031 0-1.6172-1.0938-1.6172-2.9297l-0.003906-11.641c0-1.793 1.0508-2.9297 1.6172-2.9297h21.875l1.4883-6.9141c1.8828-8.4375 5.2578-16.469 9.9766-23.711l3.8047-5.9492-15.488-15.488c-0.39453-0.39453-0.35156-1.9258 0.91797-3.2383l8.2266-8.2266c1.2695-1.2695 2.8008-1.3984 3.2383-0.91797l15.488 15.488 5.6875-3.543c7.2422-4.6523 15.258-7.9688 23.668-9.8008l6.8672-1.4883v-21.875c0-0.57031 1.0938-1.6172 2.9297-1.6172h11.637c1.8359 0 2.9297 1.0508 2.9297 1.6172v21.875l6.9141 1.4883h0.003907c8.457 1.8203 16.516 5.1406 23.801 9.8008l5.9062 3.8047 15.488-15.488c0.39453-0.39453 1.9258-0.35156 3.1953 0.91797l8.2266 8.2695c1.2695 1.2695 1.3125 2.8008 0.91797 3.2383l-15.488 15.488 3.6289 5.6445c4.6445 7.2461 7.9648 15.262 9.8008 23.668l1.4883 6.8672h21.875c0.57031 0 1.6172 1.0938 1.6172 2.9297z"/>
  <path d="m516.25 93.582c-12.312 0-24.117 4.8906-32.824 13.594-8.7031 8.707-13.594 20.512-13.594 32.824s4.8906 24.117 13.594 32.824c8.707 8.7031 20.512 13.594 32.824 13.594s24.117-4.8906 32.824-13.594c8.7031-8.707 13.594-20.512 13.594-32.824s-4.8906-24.117-13.594-32.824c-8.707-8.7031-20.512-13.594-32.824-13.594zm0 75.293c-7.6719 0-15.031-3.0469-20.453-8.4766-5.4258-5.4258-8.4688-12.785-8.4648-20.457 0.003907-7.6719 3.0547-15.027 8.4844-20.449 5.4297-5.4219 12.789-8.4609 20.461-8.4531 7.6758 0.007813 15.027 3.0625 20.445 8.4961 5.4219 5.4297 8.457 12.793 8.4453 20.465 0 7.668-3.0469 15.023-8.4688 20.449-5.4258 5.4219-12.781 8.4688-20.449 8.4688z"/>
  <path d="m89.117 166.25h8.0938c1.7188 5.6641 3.9883 11.145 6.7812 16.363l-5.7305 5.7305c-3.5625 3.8398-5.4688 8.9297-5.2969 14.168 0.17188 5.2344 2.4062 10.191 6.2148 13.789l8.2695 8.2695c3.6055 3.7969 8.5586 6.0234 13.789 6.1953 5.2344 0.17188 10.324-1.7227 14.168-5.2773l5.7305-5.7305c5.2188 2.793 10.699 5.0664 16.363 6.7812v8.0938c0.18359 5.2383 2.4375 10.195 6.2656 13.781 3.8281 3.582 8.9219 5.5 14.164 5.3359h11.641c5.2422 0.16406 10.336-1.7539 14.164-5.3359 3.8281-3.5859 6.082-8.543 6.2656-13.781v-8.0938c5.6641-1.7148 11.145-3.9883 16.363-6.7812l5.7734 5.7734c3.8516 3.5469 8.9453 5.4375 14.176 5.2578 5.2344-0.17969 10.184-2.4141 13.781-6.2188l8.2266-8.2695c3.8086-3.5977 6.043-8.5547 6.2148-13.789 0.17188-5.2383-1.7344-10.328-5.2969-14.168l-5.7305-5.7305c2.793-5.2188 5.0625-10.699 6.7812-16.363h8.0938c5.2383-0.18359 10.195-2.4375 13.781-6.2656 3.582-3.8281 5.5-8.9219 5.3359-14.164v-11.641c0.16406-5.2422-1.7539-10.336-5.3359-14.164-3.5859-3.8281-8.543-6.082-13.781-6.2656h-8.0938c-1.7188-5.6641-3.9883-11.145-6.7812-16.363l5.7305-5.7305c3.5742-3.832 5.4844-8.9297 5.3125-14.168s-2.4141-10.199-6.2305-13.789l-8.2695-8.2695c-3.5977-3.8086-8.5547-6.043-13.789-6.2148-5.2383-0.17188-10.328 1.7344-14.168 5.2969l-5.7305 5.7305c-5.2188-2.793-10.699-5.0625-16.363-6.7812v-8.0938c-0.18359-5.2383-2.4375-10.195-6.2656-13.781-3.8281-3.582-8.9219-5.5-14.164-5.3359h-11.641c-5.2422-0.16406-10.336 1.7539-14.164 5.3359-3.8281 3.5859-6.082 8.543-6.2656 13.781v8.0938c-5.6641 1.7148-11.148 3.9844-16.363 6.7812l-5.5117-5.7305c-3.8398-3.5625-8.9297-5.4688-14.168-5.2969-5.2344 0.17188-10.191 2.4062-13.789 6.2148l-8.4883 8.2695c-3.875 3.6055-6.1484 8.6055-6.3242 13.898-0.17188 5.2891 1.7734 10.43 5.4062 14.277l5.7305 5.7305c-2.7812 5.1484-5.0508 10.555-6.7812 16.145h-8.0938c-5.2383 0.18359-10.195 2.4375-13.781 6.2656-3.582 3.8281-5.5 8.9219-5.3359 14.164v11.641c-0.16406 5.2422 1.7539 10.336 5.3359 14.164 3.5859 3.8281 8.543 6.082 13.781 6.2656zm-1.6172-32.07c0-1.793 1.0508-2.9297 1.6172-2.9297h21.875l1.4883-6.9141c1.8945-8.4375 5.2852-16.469 10.02-23.711l3.8047-5.9492-15.66-15.402c-0.39453-0.39453-0.35156-1.9258 0.91797-3.2383l8.2266-8.2266c1.2695-1.2695 2.7578-1.3984 3.2383-0.91797l15.488 15.488 5.8594-3.6289c7.2422-4.6523 15.258-7.9688 23.668-9.8008l6.957-1.6602v-21.875c0-0.57031 1.0938-1.6172 2.9297-1.6172h11.637c1.8359 0 2.9297 1.0508 2.9297 1.6172v21.875l6.9141 1.4883 0.003906-0.003906c8.4336 1.8828 16.465 5.2617 23.711 9.9766l5.9062 3.8047 15.488-15.488c0.39453-0.39453 1.9258-0.35156 3.1953 0.91797l8.2266 8.2695c1.2695 1.2695 1.3125 2.8008 0.91797 3.2383l-15.488 15.488 3.6289 5.6445c4.6445 7.2461 7.9648 15.262 9.8008 23.668l1.6602 6.957h21.875c0.57031 0 1.6172 1.0938 1.6172 2.9297v11.637c0 1.8359-1.0508 2.9297-1.6172 2.9297h-21.875l-1.4883 6.8672 0.003906 0.003907c-1.8906 8.4492-5.2695 16.492-9.9766 23.758l-3.8047 5.9062 15.488 15.488c0.39453 0.39453 0.35156 1.9688-0.91797 3.2383l-8.0547 8.1797c-1.3125 1.2695-2.8438 1.3125-3.2383 0.91797l-15.488-15.531-5.8594 3.6758c-7.2422 4.6523-15.258 7.9688-23.668 9.8008l-6.957 1.6602v21.875c0 0.57031-1.0938 1.6172-2.9297 1.6172l-11.641 0.003906c-1.8359 0-2.9297-1.0508-2.9297-1.6172v-21.875l-6.8672-1.4883c-8.4531-1.875-16.5-5.2539-23.758-9.9766l-5.9492-3.8047-15.445 15.488c-0.39453 0.39453-1.9258 0.4375-3.2383-0.91797l-8.1797-8.0547c-1.2695-1.2695-1.3125-2.8438-0.91797-3.2383l15.488-15.488-3.6328-5.8594c-4.6484-7.2461-7.9648-15.258-9.8008-23.668l-1.6602-6.957h-21.875c-0.57031 0-1.6172-1.0938-1.6172-2.9297z"/>
  <path d="m183.75 186.42c12.312 0 24.117-4.8906 32.824-13.594 8.7031-8.707 13.594-20.512 13.594-32.824s-4.8906-24.117-13.594-32.824c-8.707-8.7031-20.512-13.594-32.824-13.594s-24.117 4.8906-32.824 13.594c-8.7031 8.707-13.594 20.512-13.594 32.824s4.8906 24.117 13.594 32.824c8.707 8.7031 20.512 13.594 32.824 13.594zm0-75.293c7.6719 0 15.031 3.0469 20.453 8.4766 5.4258 5.4258 8.4688 12.785 8.4648 20.457-0.003907 7.6719-3.0547 15.027-8.4844 20.449-5.4297 5.4219-12.789 8.4609-20.461 8.4531-7.6758-0.007813-15.027-3.0625-20.445-8.4961-5.4219-5.4297-8.457-12.793-8.4453-20.465 0-7.668 3.0469-15.023 8.4688-20.449 5.4258-5.4219 12.781-8.4688 20.449-8.4688z"/>
  <path d="m511.88 300.52c-0.027344-3.2812-1.8828-6.2695-4.8125-7.7461l-153.12-77.438c-2.4883-1.2617-5.4297-1.2617-7.918 0l-153.12 77.438c-2.9219 1.5-4.7617 4.5039-4.7617 7.7891s1.8398 6.2891 4.7617 7.7891l18.242 9.5391-18.637 10.016c-2.8516 1.5195-4.6367 4.4883-4.6367 7.7227 0 3.2305 1.7852 6.1992 4.6367 7.7227l18.242 9.5391-18.242 10.016c-2.8516 1.5195-4.6367 4.4883-4.6367 7.7227 0 3.2305 1.7852 6.1992 4.6367 7.7227l153.34 80.062c2.5352 1.3203 5.5586 1.3203 8.0938 0l152.91-80.062c2.8125-1.4336 4.6367-4.2695 4.7734-7.4219 0.13672-3.1523-1.4375-6.1367-4.1172-7.8047l-17.98-10.457 17.5-9.2305c2.8359-1.4531 4.6602-4.3281 4.7578-7.5156 0.10156-3.1836-1.5391-6.1719-4.2773-7.7969l-17.98-10.457 17.5-9.2305c3-1.4922 4.8867-4.5664 4.8555-7.918zm-161.88-67.594 134.01 67.77-133.79 70-134.23-70zm0 207.81-134.57-70.352 14.262-7.7891 116.51 60.77c2.5352 1.3242 5.5547 1.3242 8.0938 0l116.9-61.25 13.824 8.0078zm0-35-134.57-70.352 14.262-7.7891 116.51 60.77c2.5352 1.3242 5.5547 1.3242 8.0938 0l116.9-61.25 13.824 8.0078z"/>
  <path d="m568.75 415.62c0-6.9609-2.7656-13.641-7.6875-18.562s-11.602-7.6875-18.562-7.6875-13.641 2.7656-18.562 7.6875-7.6875 11.602-7.6875 18.562 2.7656 13.641 7.6875 18.562 11.602 7.6875 18.562 7.6875 13.641-2.7656 18.562-7.6875 7.6875-11.602 7.6875-18.562zm-35 0c0-3.5391 2.1328-6.7305 5.4023-8.082 3.2695-1.3555 7.0312-0.60938 9.5352 1.8945s3.25 6.2656 1.8945 9.5352c-1.3516 3.2695-4.543 5.4023-8.082 5.4023-4.832 0-8.75-3.918-8.75-8.75z"/>
  <path d="m595 450.62c0 4.832-3.918 8.75-8.75 8.75s-8.75-3.918-8.75-8.75 3.918-8.75 8.75-8.75 8.75 3.918 8.75 8.75"/>
  <path d="m157.5 389.38c-6.9609 0-13.641 2.7656-18.562 7.6875s-7.6875 11.602-7.6875 18.562 2.7656 13.641 7.6875 18.562 11.602 7.6875 18.562 7.6875 13.641-2.7656 18.562-7.6875 7.6875-11.602 7.6875-18.562-2.7656-13.641-7.6875-18.562-11.602-7.6875-18.562-7.6875zm0 35c-3.5391 0-6.7305-2.1328-8.082-5.4023-1.3555-3.2695-0.60938-7.0312 1.8945-9.5352s6.2656-3.25 9.5352-1.8945c3.2695 1.3516 5.4023 4.543 5.4023 8.082 0 2.3203-0.92188 4.5469-2.5625 6.1875s-3.8672 2.5625-6.1875 2.5625z"/>
  <path d="m122.5 450.62c0 4.832-3.918 8.75-8.75 8.75s-8.75-3.918-8.75-8.75 3.918-8.75 8.75-8.75 8.75 3.918 8.75 8.75"/>
  <path d="m385 148.75h-70c-0.45703 6.207-2.4062 12.211-5.6875 17.5h81.508c-3.3281-5.2773-5.3242-11.281-5.8203-17.5z"/>
  <path d="m613.2 228.68-0.69922 0.69922v243.12c0 2.3203-0.92188 4.5469-2.5625 6.1875s-3.8672 2.5625-6.1875 2.5625h-507.5c-4.832 0-8.75-3.918-8.75-8.75v-243.12l-0.69922-0.69922v-0.003906c-5.9922-5.8867-9.8516-13.605-10.969-21.93-1.1172-8.3281 0.57031-16.789 4.8008-24.051-3.7578-0.875-7.3477-2.3516-10.633-4.375v294.18c0 6.9609 2.7656 13.641 7.6875 18.562s11.602 7.6875 18.562 7.6875h218.75v17.5h-39.375c-4.832 0-8.75 3.918-8.75 8.75s3.918 8.75 8.75 8.75h148.75c4.832 0 8.75-3.918 8.75-8.75s-3.918-8.75-8.75-8.75h-39.375v-17.5h218.75c6.9609 0 13.641-2.7656 18.562-7.6875s7.6875-11.602 7.6875-18.562v-294.35c-3.2852 2.0234-6.875 3.5039-10.633 4.375 4.2734 7.2812 5.9883 15.777 4.8672 24.141-1.1172 8.3672-5 16.117-11.035 22.016zm-245.7 287.57h-35v-17.5h35z"/>
  </g>
</svg>
