<?xml version="1.0" encoding="UTF-8"?>
<svg width="700pt" height="700pt" version="1.1" viewBox="0 0 700 700" xmlns="http://www.w3.org/2000/svg" xmlns:xlink="http://www.w3.org/1999/xlink">
 <g>
  <path d="m481.25 437.5h-227.5v17.5h227.5v43.75c0 6.9609-2.7656 13.641-7.6875 18.562s-11.602 7.6875-18.562 7.6875h-210c-6.9609 0-13.641-2.7656-18.562-7.6875s-7.6875-11.602-7.6875-18.562v-393.75h227.5v-17.5h-227.5v-26.25c0-6.9609 2.7656-13.641 7.6875-18.562s11.602-7.6875 18.562-7.6875h210c6.9609 0 13.641 2.7656 18.562 7.6875s7.6875 11.602 7.6875 18.562v87.5h17.5v-87.5c-0.015625-11.598-4.6289-22.719-12.828-30.922-8.2031-8.1992-19.324-12.812-30.922-12.828h-210c-11.598 0.015625-22.719 4.6289-30.922 12.828-8.1992 8.2031-12.812 19.324-12.828 30.922v437.5c0.015625 11.598 4.6289 22.719 12.828 30.922 8.2031 8.1992 19.324 12.812 30.922 12.828h210c11.598-0.015625 22.719-4.6289 30.922-12.828 8.1992-8.2031 12.812-19.324 12.828-30.922v-96.25h-17.5z"/>
  <path d="m341.25 481.25h17.5v17.5h-17.5z"/>
  <path d="m280 52.5h17.5v17.5h-17.5z"/>
  <path d="m315 52.5h17.5v17.5h-17.5z"/>
  <path d="m236.25 131.25v35h17.5v-26.25h26.25v-17.5h-35c-4.832 0-8.75 3.918-8.75 8.75z"/>
  <path d="m551.25 253.75h-20.781c-2.4297-9.5234-6.2266-18.645-11.27-27.082l14.719-14.789v0.003906c3.4023-3.418 3.4023-8.9414 0-12.355l-24.676-24.676c-3.4141-3.4062-8.9414-3.4062-12.355 0l-14.762 14.699c-8.4492-5.0469-17.586-8.8438-27.125-11.27v-20.781c0-2.3203-0.92188-4.5469-2.5625-6.1875s-3.8672-2.5625-6.1875-2.5625h-35c-4.832 0-8.75 3.918-8.75 8.75v20.781c-9.5234 2.4297-18.645 6.2266-27.082 11.27l-14.789-14.719h0.003906c-3.418-3.4023-8.9414-3.4023-12.355 0l-24.676 24.676c-3.4062 3.4141-3.4062 8.9414 0 12.355l14.719 14.789c-5.0547 8.4375-8.8555 17.566-11.289 27.098h-20.781c-4.832 0-8.75 3.918-8.75 8.75v35c0 2.3203 0.92188 4.5469 2.5625 6.1875s3.8672 2.5625 6.1875 2.5625h20.781c2.4258 9.5391 6.2227 18.676 11.27 27.125l-14.719 14.789c-3.4023 3.4141-3.4023 8.9375 0 12.352l24.676 24.676c3.4141 3.4062 8.9414 3.4062 12.355 0l14.789-14.719v0.003906c8.4414 5.0352 17.57 8.8203 27.098 11.242v20.781c0 2.3203 0.92188 4.5469 2.5625 6.1875s3.8672 2.5625 6.1875 2.5625h35c2.3203 0 4.5469-0.92188 6.1875-2.5625s2.5625-3.8672 2.5625-6.1875v-20.781c9.5391-2.4258 18.676-6.2227 27.125-11.27l14.789 14.719c3.4141 3.4023 8.9375 3.4023 12.352 0l24.676-24.676c3.4062-3.4141 3.4062-8.9414 0-12.355l-14.742-14.762c5.0469-8.4492 8.8438-17.586 11.27-27.125h20.781c2.3203 0 4.5469-0.92188 6.1875-2.5625s2.5625-3.8672 2.5625-6.1875v-35c0-2.3203-0.92188-4.5469-2.5625-6.1875s-3.8672-2.5625-6.1875-2.5625zm-8.75 35h-19.074c-4.2305 0-7.8594 3.0273-8.6094 7.1914-2.1836 12.074-6.9609 23.527-14 33.574-2.418 3.4727-2 8.1797 0.98828 11.176l13.57 13.586-12.348 12.348-13.59-13.52h0.003906c-2.9961-2.9883-7.7031-3.4023-11.176-0.98828-10.047 7.043-21.5 11.82-33.574 14-4.1445 0.75-7.1641 4.3477-7.1914 8.5586v19.074h-17.5v-19.074c0-4.2305-3.0273-7.8594-7.1914-8.6094-12.074-2.1836-23.527-6.9609-33.574-14-3.4727-2.418-8.1797-2-11.176 0.98828l-13.586 13.57-12.348-12.348 13.52-13.59v0.003906c2.9883-2.9961 3.4023-7.7031 0.98828-11.176-7.043-10.047-11.82-21.5-14-33.574-0.75-4.1445-4.3477-7.1641-8.5586-7.1914h-19.074v-17.5h19.074c4.2305 0 7.8594-3.0273 8.6094-7.1914 2.1836-12.074 6.9609-23.527 14-33.574 2.418-3.4727 2-8.1797-0.98828-11.176l-13.57-13.586 12.348-12.348 13.59 13.52h-0.003906c2.9961 2.9883 7.7031 3.4023 11.176 0.98828 10.047-7.043 21.5-11.82 33.574-14 4.1445-0.75 7.1641-4.3477 7.1914-8.5586v-19.074h17.5v19.074c0 4.2305 3.0273 7.8594 7.1914 8.6094 12.074 2.1836 23.527 6.9609 33.574 14 3.4727 2.418 8.1797 2 11.176-0.98828l13.586-13.57 12.348 12.348-13.52 13.59v-0.003906c-2.9883 2.9961-3.4023 7.7031-0.98828 11.176 7.043 10.047 11.82 21.5 14 33.574 0.75 4.1445 4.3477 7.1641 8.5586 7.1914h19.074z"/>
  <path d="m428.75 227.5c-13.926 0-27.277 5.5312-37.125 15.375-9.8438 9.8477-15.375 23.199-15.375 37.125s5.5312 27.277 15.375 37.125c9.8477 9.8438 23.199 15.375 37.125 15.375s27.277-5.5312 37.125-15.375c9.8438-9.8477 15.375-23.199 15.375-37.125-0.015625-13.918-5.5508-27.266-15.391-37.109-9.8438-9.8398-23.191-15.375-37.109-15.391zm0 87.5c-9.2812 0-18.184-3.6875-24.75-10.25-6.5625-6.5664-10.25-15.469-10.25-24.75s3.6875-18.184 10.25-24.75c6.5664-6.5625 15.469-10.25 24.75-10.25s18.184 3.6875 24.75 10.25c6.5625 6.5664 10.25 15.469 10.25 24.75s-3.6875 18.184-10.25 24.75c-6.5664 6.5625-15.469 10.25-24.75 10.25z"/>
 </g>
</svg>
