<?xml version="1.0" encoding="UTF-8"?>
<svg width="700pt" height="700pt" version="1.1" viewBox="0 0 700 700" xmlns="http://www.w3.org/2000/svg" xmlns:xlink="http://www.w3.org/1999/xlink">
 <g>
  <path d="m388.02 397.6h8.5664l-22.793 21.391h-72.801l22.906-21.391h15.902l0.003906-11.203h-20.328l-38.078 35.785v53.312h-22.852v11.199h22.848v13.664h96.879l14.559-13.664h20.551v-11.199h-8.6758l11.594-11.199v-77.898h-28.281zm-14.223 91.559h-81.199v-58.969h77.84v25.367h11.199v-28.559l23.465-22.062v54.824z"/>
  <path d="m370.44 463.85h11.199v16.129h-11.199z"/>
  <path d="m452.82 422.18v53.312h-27.105v11.199h27.105v13.664h96.879l38.023-35.559v-78.402h-96.824zm92.457 67.199h-81.258v-59.191h77.84v25.367h11.199v-28.559l23.465-22.062v54.824zm22.734-91.781-22.734 21.391h-72.801l23.129-21.391z"/>
  <path d="m541.86 463.85h11.199v16.129h-11.199z"/>
  <path d="m244.38 464.8v-78.402h-96.879l-38.305 35.785v78.398h96.879l14.559-13.664h25.367v-11.199h-13.441zm-92.453-67.199h72.801l-22.734 21.391h-72.801zm49.953 91.559h-81.484v-58.969h77.84v25.367h11.199v-28.559l23.52-22.062 0.003907 54.824z"/>
  <path d="m198.46 463.85h11.199v16.129h-11.199z"/>
  <path d="m266 302.4h78.398v37.07h11.199l0.003906-37.07h78.398v-59.301l18.258 18.258 40.543-0.003907c2.1875 7 7.6602 12.48 14.652 14.684s14.621 0.83984 20.422-3.6406c5.8008-4.4844 9.043-11.523 8.6758-18.844-0.36328-7.3242-4.293-14.004-10.512-17.883-6.2188-3.8828-13.945-4.4766-20.684-1.5859-6.7383 2.8867-11.637 8.8906-13.117 16.07h-35.336l-22.902-22.848v-31.305h45.586c1.832 7.0977 7.0234 12.852 13.898 15.402 6.875 2.5508 14.562 1.5742 20.582-2.6133 6.0195-4.1875 9.6055-11.059 9.6055-18.391 0-7.332-3.5859-14.199-9.6055-18.387-6.0195-4.1875-13.707-5.1641-20.582-2.6133-6.875 2.5508-12.066 8.3008-13.898 15.402h-45.586v-28h21.168l32.367-32.367h18.93c1.832 7.0977 7.0234 12.852 13.898 15.402 6.875 2.5469 14.562 1.5703 20.582-2.6172 6.0195-4.1875 9.6055-11.055 9.6055-18.387s-3.5859-14.199-9.6055-18.387c-6.0195-4.1875-13.707-5.1641-20.582-2.6172-6.875 2.5508-12.066 8.3047-13.898 15.402h-23.578l-32.086 32.371h-16.801v-86.523h-168v86.523h-14.281l-32.367-32.367-23.574-0.003906c-1.8359-7.0977-7.0273-12.852-13.902-15.402-6.875-2.5469-14.562-1.5703-20.578 2.6172-6.0195 4.1875-9.6094 11.055-9.6094 18.387s3.5898 14.199 9.6094 18.387c6.0156 4.1875 13.703 5.1641 20.578 2.6172 6.875-2.5508 12.066-8.3047 13.902-15.402h18.93l32.363 32.367h18.93v28h-43.344c-1.832-7.1016-7.0234-12.852-13.898-15.402-6.875-2.5508-14.562-1.5742-20.582 2.6133s-9.6094 11.055-9.6094 18.387c0 7.332 3.5898 14.203 9.6094 18.391s13.707 5.1641 20.582 2.6133c6.875-2.5508 12.066-8.3047 13.898-15.402h43.344v33.602l-20.664 20.664h-35.336c-1.4414-7.1914-6.3125-13.215-13.035-16.137-6.7266-2.9219-14.453-2.3672-20.691 1.4844-6.2383 3.8477-10.199 10.508-10.602 17.828-0.40234 7.3203 2.8008 14.375 8.582 18.887 5.7773 4.5117 13.398 5.9102 20.402 3.7461 7.0039-2.168 12.504-7.625 14.727-14.609h40.602l16.016-16.129zm248.14-58.797c4.5273 0 8.6133 2.7266 10.348 6.9141 1.7344 4.1836 0.77344 9-2.4297 12.203-3.2031 3.2031-8.0195 4.1641-12.203 2.4297-4.1875-1.7344-6.9141-5.8203-6.9141-10.348 0-6.1875 5.0117-11.199 11.199-11.199zm-12.938-64.402c4.5312 0 8.6133 2.7305 10.348 6.9141 1.7344 4.1875 0.77734 9.0039-2.4258 12.207-3.2031 3.2031-8.0234 4.1602-12.207 2.4258-4.1836-1.7305-6.9141-5.8164-6.9141-10.348 0-6.1836 5.0156-11.199 11.199-11.199zm26.824-71.566c4.5312 0 8.6133 2.7266 10.348 6.9141 1.7344 4.1836 0.77734 9-2.4258 12.203-3.2031 3.2031-8.0234 4.1641-12.207 2.4297-4.1836-1.7344-6.9141-5.8164-6.9141-10.348 0-6.1875 5.0156-11.199 11.199-11.199zm-353.86 22.398c-4.5312 0-8.6133-2.7266-10.348-6.9141-1.7344-4.1836-0.77344-9 2.4297-12.203 3.2031-3.2031 8.0195-4.1641 12.203-2.4297 4.1875 1.7344 6.9141 5.8164 6.9141 10.348 0 2.9688-1.1797 5.8203-3.2812 7.918-2.0977 2.1016-4.9492 3.2812-7.918 3.2812zm26.879 71.57c-4.5273 0-8.6133-2.7305-10.348-6.9141-1.7305-4.1875-0.77344-9.0039 2.4297-12.207s8.0195-4.1602 12.203-2.4297c4.1875 1.7344 6.9141 5.8203 6.9141 10.348 0 2.9727-1.1797 5.8203-3.2773 7.9219-2.1016 2.1016-4.9492 3.2812-7.9219 3.2812zm-12.934 64.398c-4.5312 0-8.6172-2.7305-10.348-6.9141-1.7344-4.1836-0.77734-9.0039 2.4258-12.207s8.0195-4.1602 12.207-2.4258c4.1836 1.7344 6.9141 5.8164 6.9141 10.348 0 2.9688-1.1797 5.8203-3.2812 7.918-2.1016 2.1016-4.9492 3.2812-7.918 3.2812zm89.094-195.72h145.6v19.32h-145.6zm145.6 30.52v190.4h-145.6v-57.062l0.55859-0.55859-0.55859-0.61719v-132.16z"/>
  <path d="m344.4 357.22h11.199v22.512h-11.199z"/>
  <path d="m338.8 134.4h67.199v11.199h-67.199z"/>
  <path d="m338.8 184.8h67.199v11.199h-67.199z"/>
  <path d="m338.8 235.2h67.199v11.199h-67.199z"/>
  <path d="m294 128.8h22.398v22.398h-22.398z"/>
  <path d="m294 179.2h22.398v22.398h-22.398z"/>
  <path d="m294 229.6h22.398v22.398h-22.398z"/>
  </g>
</svg>
